<svg xmlns="http://www.w3.org/2000/svg" xmlns:xlink="http://www.w3.org/1999/xlink" width="162.000000" height="46.000000" viewBox="0 0 162 46" fill="none">
	<desc>
			Created with Pixso.
	</desc>
	<defs>
		<clipPath id="clip123_2265">
			<rect id="ЛЦ" width="162.000000" height="46.000000" fill="white" fill-opacity="0"/>
		</clipPath>
	</defs>
	<rect id="ЛЦ" width="162.000000" height="46.000000" fill="#FFFFFF" fill-opacity="0"/>
	<g clip-path="url(#clip123_2265)">
		<path id="Vector" d="M14.8264 27.8164L14.8264 26.3027C15.6318 26.3027 16.1006 25.8691 16.3528 23.7539L16.8215 19.6562L22.5186 19.6562L22.5186 27.6719L20.7998 27.6719L20.7998 21.1582L18.3599 21.1582L18.0474 23.875C17.6628 27.2031 16.4609 27.8164 14.8264 27.8164ZM27.8965 27.8164C25.4805 27.8164 23.7139 26.0859 23.7139 23.6699C23.7139 21.2539 25.4805 19.5234 27.8965 19.5234C30.3242 19.5234 32.0911 21.2539 32.0911 23.6699C32.0911 26.0859 30.3242 27.8164 27.8965 27.8164ZM27.8965 26.3027C29.3748 26.3027 30.3362 25.1602 30.3362 23.6699C30.3362 22.168 29.3748 21.0371 27.8965 21.0371C26.418 21.0371 25.4685 22.168 25.4685 23.6699C25.4685 25.1602 26.418 26.3027 27.8965 26.3027ZM34.9954 27.6719L33.2886 27.6719L33.2886 19.6562L38.9617 19.6562L38.9617 21.1582L34.9954 21.1582L34.9954 27.6719ZM41.8015 27.6719L40.155 27.6719L40.155 19.6562L41.8616 19.6562L41.8616 24.8359L45.5754 19.6562L47.3303 19.6562L47.3303 27.6719L45.6235 27.6719L45.6235 22.2988L41.8015 27.6719ZM52.7932 27.8164C50.3894 27.8164 48.5264 26.1328 48.5264 23.6699C48.5264 21.2051 50.3894 19.5234 52.7932 19.5234C54.5601 19.5234 55.5815 20.4844 56.1462 21.4824L54.6802 22.2031C54.3435 21.5547 53.6226 21.0371 52.7932 21.0371C51.3389 21.0371 50.2812 22.1543 50.2812 23.6699C50.2812 25.1836 51.3389 26.3027 52.7932 26.3027C53.6226 26.3027 54.3435 25.7969 54.6802 25.1367L56.1462 25.8457C55.5696 26.8418 54.5601 27.8164 52.7932 27.8164ZM60.7319 27.6719L59.0132 27.6719L59.0132 21.1582L56.6694 21.1582L56.6694 19.6562L63.0635 19.6562L63.0635 21.1582L60.7319 21.1582L60.7319 27.6719ZM65.8042 27.6719L64.1577 27.6719L64.1577 19.6562L65.8645 19.6562L65.8645 24.8359L69.5784 19.6562L71.333 19.6562L71.333 27.6719L69.6262 27.6719L69.6262 22.2988L65.8042 27.6719ZM74.428 19.6562L74.428 21.9023C74.428 22.9492 74.969 23.3574 75.8943 23.3574C76.4712 23.3574 77.0002 23.2617 77.4209 23.0938L77.4209 19.6562L79.1277 19.6562L79.1277 27.6719L77.4209 27.6719L77.4209 24.5957C76.9041 24.752 76.3032 24.8594 75.6899 24.8594C73.6467 24.8594 72.7095 23.6816 72.7095 21.9023L72.7095 19.6562L74.428 19.6562ZM86.3918 27.6719L80.719 27.6719L80.719 19.6562L86.3918 19.6562L86.3918 21.1582L82.4258 21.1582L82.4258 22.8516L86.3079 22.8516L86.3079 24.3555L82.4258 24.3555L82.4258 26.1699L86.3918 26.1699L86.3918 27.6719ZM91.6084 27.8164C89.2046 27.8164 87.3416 26.1328 87.3416 23.6699C87.3416 21.2051 89.2046 19.5234 91.6084 19.5234C93.375 19.5234 94.3967 20.4844 94.9617 21.4824L93.4954 22.2031C93.1587 21.5547 92.4375 21.0371 91.6084 21.0371C90.1541 21.0371 89.0962 22.1543 89.0962 23.6699C89.0962 25.1836 90.1541 26.3027 91.6084 26.3027C92.4375 26.3027 93.1587 25.7969 93.4954 25.1367L94.9617 25.8457C94.3848 26.8418 93.375 27.8164 91.6084 27.8164ZM102.84 27.6719L100.737 27.6719L98.3091 24.4629L97.6841 25.209L97.6841 27.6719L95.9773 27.6719L95.9773 19.6562L97.6841 19.6562L97.6841 23.2363L100.521 19.6562L102.624 19.6562L99.439 23.418L102.84 27.6719ZM105.265 27.6719L103.618 27.6719L103.618 19.6562L105.325 19.6562L105.325 24.8359L109.039 19.6562L110.794 19.6562L110.794 27.6719L109.087 27.6719L109.087 22.2988L105.265 27.6719ZM114.021 27.6719L112.374 27.6719L112.374 19.6562L114.081 19.6562L114.081 24.8359L117.795 19.6562L119.55 19.6562L119.55 27.6719L117.843 27.6719L117.843 22.2988L114.021 27.6719ZM118.072 18.2246C117.591 18.875 116.833 19.2832 115.968 19.2832C115.115 19.2832 114.345 18.875 113.853 18.2246L114.526 17.6602C114.85 18.1172 115.343 18.4062 115.968 18.4062C116.569 18.4062 117.062 18.1289 117.398 17.6602L118.072 18.2246ZM130.431 29.1504L130.431 27.6719L124.206 27.6719L124.206 19.6562L125.912 19.6562L125.912 26.1699L129.698 26.1699L129.698 19.6562L131.417 19.6562L131.417 26.1699L132.138 26.1699L132.138 29.1504L130.431 29.1504ZM138.811 27.6719L133.137 27.6719L133.137 19.6562L138.811 19.6562L138.811 21.1582L134.844 21.1582L134.844 22.8516L138.727 22.8516L138.727 24.3555L134.844 24.3555L134.844 26.1699L138.811 26.1699L138.811 27.6719ZM147.357 27.6719L145.637 27.6719L145.637 24.3066L141.851 24.3066L141.851 27.6719L140.146 27.6719L140.146 19.6562L141.851 19.6562L141.851 22.8047L145.637 22.8047L145.637 19.6562L147.357 19.6562L147.357 27.6719ZM152.506 27.6719L150.788 27.6719L150.788 21.1582L148.443 21.1582L148.443 19.6562L154.837 19.6562L154.837 21.1582L152.506 21.1582L152.506 27.6719ZM157.639 27.6719L155.932 27.6719L155.932 19.6562L159.682 19.6562C161.423 19.6562 162.374 20.834 162.374 22.2402C162.374 23.6328 161.412 24.8242 159.682 24.8242L157.639 24.8242L157.639 27.6719ZM159.453 23.3203C160.126 23.3203 160.63 22.9004 160.63 22.2402C160.63 21.5664 160.126 21.1582 159.453 21.1582L157.639 21.1582L157.639 23.3203L159.453 23.3203Z" fill="#DD3B1A" fill-opacity="1.000000" fill-rule="nonzero"/>
		<path id="Vector" d="M68.4636 42.584L65.0171 42.584L65.0171 37.1621L66.1714 37.1621L66.1714 41.5664L68.4636 41.5664L68.4636 42.584ZM73.9202 42.6816C72.2864 42.6816 71.0916 41.5098 71.0916 39.877C71.0916 38.2422 72.2864 37.0723 73.9202 37.0723C75.562 37.0723 76.7568 38.2422 76.7568 39.877C76.7568 41.5098 75.562 42.6816 73.9202 42.6816ZM73.9202 41.6562C74.9199 41.6562 75.5701 40.8848 75.5701 39.877C75.5701 38.8613 74.9199 38.0957 73.9202 38.0957C72.9204 38.0957 72.2781 38.8613 72.2781 39.877C72.2781 40.8848 72.9204 41.6562 73.9202 41.6562ZM82.272 42.6895C80.687 42.6895 79.3865 41.584 79.3865 39.877C79.3865 38.1621 80.687 37.0723 82.272 37.0723C83.4019 37.0723 84.1091 37.6406 84.5154 38.2832L83.5564 38.8027C83.3125 38.4219 82.8494 38.0957 82.272 38.0957C81.2886 38.0957 80.5732 38.8516 80.5732 39.877C80.5732 40.9004 81.2886 41.6562 82.272 41.6562C82.7517 41.6562 83.2068 41.4453 83.4263 41.2422L83.4263 40.5918L81.9956 40.5918L81.9956 39.584L84.5806 39.584L84.5806 41.6641C84.0278 42.2832 83.2556 42.6895 82.272 42.6895ZM88.7307 42.584L87.5767 42.584L87.5767 37.1621L88.7307 37.1621L88.7307 42.584ZM93.8132 42.6816C92.7727 42.6816 92.0249 42.332 91.521 41.8184L92.147 40.9414C92.5291 41.3398 93.1223 41.6738 93.8701 41.6738C94.5042 41.6738 94.813 41.3809 94.813 41.0723C94.813 40.1113 91.6917 40.7715 91.6917 38.7305C91.6917 37.8281 92.4719 37.0801 93.748 37.0801C94.6099 37.0801 95.3252 37.3398 95.8616 37.8359L95.2195 38.6816C94.7805 38.2754 94.1953 38.0879 93.6426 38.0879C93.1467 38.0879 92.8704 38.3086 92.8704 38.6328C92.8704 39.4941 95.9834 38.918 95.9834 40.9414C95.9834 41.9336 95.2764 42.6816 93.8132 42.6816ZM101.255 42.584L100.092 42.584L100.092 38.1777L98.5071 38.1777L98.5071 37.1621L102.831 37.1621L102.831 38.1777L101.255 38.1777L101.255 42.584ZM106.805 42.584L105.651 42.584L105.651 37.1621L106.805 37.1621L106.805 42.584ZM112.587 42.6816C110.961 42.6816 109.701 41.543 109.701 39.877C109.701 38.2109 110.961 37.0723 112.587 37.0723C113.782 37.0723 114.473 37.7227 114.855 38.3965L113.863 38.8848C113.635 38.4453 113.148 38.0957 112.587 38.0957C111.603 38.0957 110.888 38.8516 110.888 39.877C110.888 40.9004 111.603 41.6562 112.587 41.6562C113.148 41.6562 113.635 41.3145 113.863 40.8691L114.855 41.3477C114.464 42.0215 113.782 42.6816 112.587 42.6816ZM124.406 42.6816C122.781 42.6816 121.521 41.543 121.521 39.877C121.521 38.2109 122.781 37.0723 124.406 37.0723C125.601 37.0723 126.292 37.7227 126.674 38.3965L125.682 38.8848C125.455 38.4453 124.967 38.0957 124.406 38.0957C123.423 38.0957 122.708 38.8516 122.708 39.877C122.708 40.9004 123.423 41.6562 124.406 41.6562C124.967 41.6562 125.455 41.3145 125.682 40.8691L126.674 41.3477C126.284 42.0215 125.601 42.6816 124.406 42.6816ZM133.278 42.584L129.441 42.584L129.441 37.1621L133.278 37.1621L133.278 38.1777L130.595 38.1777L130.595 39.3242L133.22 39.3242L133.22 40.3398L130.595 40.3398L130.595 41.5664L133.278 41.5664L133.278 42.584ZM141.112 42.584L139.998 42.584L137.414 39.0469L137.414 42.584L136.26 42.584L136.26 37.1621L137.446 37.1621L139.958 40.5684L139.958 37.1621L141.112 37.1621L141.112 42.584ZM146.675 42.584L145.512 42.584L145.512 38.1777L143.927 38.1777L143.927 37.1621L148.251 37.1621L148.251 38.1777L146.675 38.1777L146.675 42.584ZM154.909 42.584L151.072 42.584L151.072 37.1621L154.909 37.1621L154.909 38.1777L152.227 38.1777L152.227 39.3242L154.852 39.3242L154.852 40.3398L152.227 40.3398L152.227 41.5664L154.909 41.5664L154.909 42.584ZM162.28 42.584L160.954 42.584L159.89 40.6562L159.044 40.6562L159.044 42.584L157.891 42.584L157.891 37.1621L160.426 37.1621C161.557 37.1621 162.247 37.9023 162.247 38.9102C162.247 39.8691 161.646 40.3809 161.06 40.5195L162.28 42.584ZM160.256 39.6406C160.719 39.6406 161.068 39.3652 161.068 38.9102C161.068 38.4531 160.719 38.1777 160.256 38.1777L159.044 38.1777L159.044 39.6406L160.256 39.6406Z" fill="#222222" fill-opacity="1.000000" fill-rule="nonzero"/>
		<path id="Vector" d="M30.9766 1.86523C30.9766 1.96484 30.8953 2.04688 30.7952 2.04688C30.6948 2.04688 30.6135 1.96484 30.6135 1.86523C30.6135 1.76562 30.6948 1.68359 30.7952 1.68359C30.8953 1.68359 30.9766 1.76562 30.9766 1.86523Z" fill="#DD3B1A" fill-opacity="1.000000" fill-rule="evenodd"/>
		<path id="Vector" d="M4.45557 13.1621C3.42432 15.082 2.56519 17.0762 2.17407 19.1699C1.68506 21.7852 1.67041 24.3359 2.13062 26.8223C2.13574 26.8496 2.12622 26.873 2.10181 26.8906C2.09619 26.8945 2.0896 26.8965 2.08276 26.8984C2.07593 26.9004 2.06885 26.8984 2.06201 26.8965C2.05542 26.8945 2.04907 26.8926 2.04395 26.8867C2.03857 26.8828 2.03442 26.877 2.03174 26.8691C1.90747 26.5625 1.8125 26.2402 1.74707 25.9004C1.42847 24.2305 1.34473 22.6191 1.49585 21.0664C2.10938 14.7637 5.27783 9.19141 10.4849 5.60352C17.4502 0.804688 27.4824 0.503906 34.4639 5.43164C36.0422 6.54492 37.624 7.80664 38.835 9.20312C39.0144 9.41016 39.1777 9.63281 39.325 9.875C39.3455 9.90625 39.3367 9.92773 39.2986 9.93359C39.1204 9.9668 38.8801 10.0078 38.7437 9.84375C37.0303 7.78711 34.9355 6.08398 32.4595 4.73438C30.155 3.47656 27.7729 2.70703 25.3127 2.41992C21.8545 2.01758 18.5049 2.39648 15.2642 3.55664C12.9053 4.40039 10.9265 5.63281 9.11719 7.27734C7.16333 9.05273 5.60938 11.0137 4.45557 13.1621Z" fill="#DD3B1A" fill-opacity="1.000000" fill-rule="nonzero"/>
		<path id="Vector" d="M31.4019 2.18359C31.4019 2.24805 31.3489 2.30078 31.2834 2.30078C31.218 2.30078 31.165 2.24805 31.165 2.18359C31.165 2.11719 31.218 2.06445 31.2834 2.06445C31.3489 2.06445 31.4019 2.11719 31.4019 2.18359Z" fill="#DD3B1A" fill-opacity="1.000000" fill-rule="evenodd"/>
		<path id="Vector" d="M39.3838 8.25C39.3838 8.37891 39.2803 8.48047 39.1528 8.48047C39.0254 8.48047 38.9219 8.37891 38.9219 8.25C38.9219 8.12305 39.0254 8.01953 39.1528 8.01953C39.2803 8.01953 39.3838 8.12305 39.3838 8.25Z" fill="#DD3B1A" fill-opacity="1.000000" fill-rule="evenodd"/>
		<path id="Vector" d="M31.4583 43.791C28.8242 44.8945 26.1565 45.4297 23.4551 45.3965C23.313 45.3945 23.1697 45.377 23.0247 45.3398C23.0151 45.3379 23.0063 45.332 22.9998 45.3242C22.9932 45.3184 22.989 45.3086 22.9875 45.2988C22.9861 45.2891 22.9878 45.2793 22.9922 45.2695C22.9963 45.2598 23.0034 45.2539 23.012 45.248C23.0442 45.2285 23.0796 45.2168 23.1177 45.2148C23.7231 45.1758 24.3582 45.1211 25.0222 45.0547C27.5864 44.7969 30.0579 44.0664 32.4365 42.8633C33.665 42.2402 34.8999 41.4785 36.1411 40.5781C36.5396 40.2891 36.9231 39.9785 37.2917 39.6445C38.4534 38.5957 39.5059 37.5176 40.4995 36.3535C40.5269 36.3223 40.5593 36.3164 40.5974 36.334L40.6172 36.3457C40.6206 36.3457 40.6238 36.3496 40.6262 36.3516C40.6287 36.3555 40.6304 36.3594 40.6313 36.3633C40.6323 36.3672 40.6323 36.3711 40.6313 36.375C40.6306 36.3789 40.6289 36.3828 40.6265 36.3867C39.5969 37.748 38.4031 38.9316 37.1672 40.0977C36.7639 40.4785 36.3364 40.832 35.8848 41.1582C34.8984 41.8691 33.884 42.5215 32.8413 43.1133C32.3948 43.3652 31.9338 43.5918 31.4583 43.791Z" fill="#DD3B1A" fill-opacity="1.000000" fill-rule="nonzero"/>
		<path id="Vector" d="M9.02075 40.5859C7.17139 39.0977 5.56665 37.3867 4.22876 35.4141L2.8728 33.125C1.22461 29.9336 0.304199 26.3418 0.332275 22.752C0.365479 18.4609 1.56641 14.2246 4.00024 10.7324C4.21387 10.4258 4.42505 10.1211 4.63354 9.81836C7.0249 6.33984 10.594 3.7168 14.532 2.14648Q17.1072 1.11914 19.771 0.771484Q21.9231 0.492188 24.1331 0.654297C25.2581 0.738281 26.2397 0.867188 27.0784 1.04492C27.9539 1.23047 28.8091 1.42773 29.6436 1.63672C29.7732 1.66797 29.9275 1.68945 30.0569 1.70703C30.1956 1.72461 30.21 1.69141 30.1003 1.60352C30.042 1.55664 29.9709 1.51953 29.8875 1.49023C25.5759 -0.0332031 20.8777 -0.142578 16.4895 1.01172Q14.7017 1.48242 13.1208 2.23047Q10.123 3.65039 7.72241 5.75391Q5.2749 7.89844 3.448 10.75Q2.28223 12.5703 1.50659 14.5449Q0.633789 16.7676 0.255615 19.1836C-0.540283 24.2715 0.245361 29.5 2.72705 34.0527L3.49829 35.3281Q5.05591 37.7012 7.06812 39.5898Q8.24121 40.6895 9.5686 41.627C10.8357 42.5195 12.0173 43.2031 13.114 43.6777C14.8979 44.4512 16.895 45.0469 19.105 45.4668C20.1304 45.6621 21.1682 45.7227 22.2039 45.6445C22.3303 45.6348 22.4431 45.5938 22.542 45.5234C22.6035 45.4785 22.5984 45.4238 22.5269 45.3594C22.4985 45.332 22.4626 45.3164 22.4246 45.3145C21.8723 45.2734 21.3586 45.2344 20.8835 45.1973C19.5991 45.0957 18.3379 44.8945 17.0999 44.5957C14.1453 43.8809 11.4214 42.5195 9.02075 40.5859ZM1.98486 23.9863C2.17407 26.707 2.39062 28.957 3.66626 31.8105C4.30981 33.25 4.74707 34.041 5.69019 35.3047C6.5918 36.5117 7.34424 37.2559 8.32715 38.1211C11.3491 40.7793 14.9863 42.7637 18.8938 43.5469C21.8333 44.1387 24.7566 44.0625 27.6638 43.3203C31.0688 42.4492 34.1084 40.8281 36.7827 38.4531C37.1453 38.1328 37.4744 37.7852 37.7705 37.4102Q37.8599 37.2969 37.8442 37.2812Q37.8286 37.2637 37.7083 37.3418C37.5605 37.4355 37.4189 37.5469 37.2837 37.6777Q36.4136 38.5059 35.5112 39.25C34.4023 40.1641 33.0618 40.9902 31.7136 41.5859C25.3833 44.3867 18.0645 44.293 12.1135 40.5547C10.5879 39.5977 9.19727 38.5215 7.94092 37.3301C7.25171 36.6758 6.72363 36.0898 6.05078 35.207C5.10864 33.9707 3.98926 31.8008 3.98926 31.8008C3.98926 31.8008 3.56982 30.8281 3.43018 30.3379C3.42676 30.3262 3.43066 30.3184 3.44214 30.3145L3.46338 30.3066C3.4668 30.3047 3.46899 30.3066 3.47021 30.3086C3.70703 30.8164 3.9502 31.2109 4.27393 31.7812C5.02661 33.1055 6.33716 35.0918 6.33716 35.0918C7.62842 36.9883 9.35181 38.6094 11.5066 39.9531C13.8953 41.4434 16.3813 42.4336 18.9653 42.9258C23.0066 43.6953 27.3179 43.2441 31.084 41.4922C32.3513 40.9043 33.4004 40.3164 34.2312 39.7305C35.54 38.8066 36.7842 37.6699 37.9629 36.3223C37.9658 36.3203 37.968 36.3164 37.9692 36.3105C37.9702 36.3066 37.9705 36.3027 37.9697 36.2988C37.9688 36.2949 37.967 36.2891 37.9644 36.2871C37.9619 36.2832 37.9585 36.2793 37.9546 36.2773L37.9331 36.2656C37.9185 36.2578 37.9014 36.2559 37.8845 36.2578C37.8679 36.2598 37.8523 36.2676 37.8403 36.2793C36.6721 37.4512 35.4236 38.4902 34.0947 39.3945Q31.2402 41.3379 28.0884 42.2285Q25.4851 42.9648 22.6792 42.9844C19.6582 43.0059 16.6865 42.2383 13.95 40.8828C12.0222 39.9258 10.3298 38.8789 8.88184 37.4707C8.06543 36.6777 7.29443 35.834 6.56885 34.9453L4.50659 31.6191C4.50659 31.6191 3.55493 29.543 3.26733 28.3242C2.95557 27.002 2.70825 25.6484 2.5625 24.3164C1.6958 16.3965 6.39673 8.87695 13.23 5.18359Q15.2585 4.08594 17.4248 3.49023Q19.0234 3.05078 20.697 2.88477Q22.135 2.74023 23.562 2.8125Q26.1299 2.93945 28.6626 3.76562C29.1763 3.93164 29.7129 4.12891 30.2725 4.35352C32.3821 5.20312 34.2917 6.36914 36.0012 7.85156C36.4875 8.27148 36.9243 8.69336 37.312 9.11523C37.4521 9.26758 37.5874 9.39844 37.7175 9.50977C37.7175 9.50977 37.9919 9.78516 38.0547 9.84375C38.1045 9.89062 38.167 9.89258 38.2266 9.89258C38.2419 9.89453 38.2576 9.89453 38.2725 9.89453Q38.321 9.89844 38.3467 9.87695Q38.3699 9.85742 38.3745 9.81641C38.3777 9.78906 38.375 9.76172 38.3672 9.73633C38.3591 9.70898 38.3462 9.68555 38.3286 9.66406C38.1555 9.45898 38.0049 9.23242 37.8225 9.03711C36.781 7.92383 35.7988 7.0293 34.8762 6.35547C32.7327 4.78711 30.321 3.67969 27.6418 3.03125Q24.9233 2.375 22.2214 2.43555Q19.5815 2.49609 16.9575 3.24219C14.2917 4 11.8833 5.26367 9.73242 7.03516C8.85205 7.76172 7.86426 8.73633 7.18677 9.42773Q6.07373 10.5664 5.08423 12.2266Q3.64502 14.6445 2.81396 17.2168C2.10913 19.4004 1.82544 21.6934 1.98486 23.9863Z" fill="#DD3B1A" fill-opacity="1.000000" fill-rule="evenodd"/>
	</g>
</svg>