<svg xmlns="http://www.w3.org/2000/svg" xmlns:xlink="http://www.w3.org/1999/xlink" width="30.000000" height="30.000000" viewBox="0 0 30 30" fill="none">
	<desc>
			Created with Pixso.
	</desc>
	<defs>
		<clipPath id="clip225_12962">
			<rect id="fi_159832" width="30.000000" height="30.000000" fill="white" fill-opacity="0"/>
		</clipPath>
	</defs>
	<rect id="fi_159832" width="30.000000" height="30.000000" fill="#FFFFFF" fill-opacity="0"/>
	<g clip-path="url(#clip225_12962)">
		<path id="Vector" d="M6.11328 19.9424C9.07178 23.4795 12.6338 26.2637 16.6992 28.2344C18.2476 28.9678 20.3174 29.8379 22.6235 29.9873C22.7666 29.9941 22.9033 30 23.0464 30C24.5942 30 25.8374 29.4658 26.8506 28.3652C26.8569 28.3594 26.8691 28.3467 26.8755 28.334C27.2363 27.8984 27.6465 27.5068 28.0752 27.0908C28.3677 26.8105 28.666 26.5186 28.9517 26.2207C30.2759 24.8408 30.2759 23.0879 28.9395 21.751L25.2036 18.0146C24.5693 17.3564 23.811 17.0078 23.0151 17.0078C22.2197 17.0078 21.4551 17.3564 20.8022 18.0088L18.5767 20.2344C18.3716 20.1162 18.1602 20.0107 17.9614 19.9111C17.7129 19.7861 17.4829 19.6689 17.2773 19.5381C15.251 18.251 13.4111 16.5723 11.6519 14.416C10.7627 13.29 10.166 12.3457 9.74951 11.3818C10.334 10.8535 10.8809 10.3008 11.4092 9.75977C11.5957 9.56738 11.7886 9.37402 11.9814 9.18164C12.6528 8.50977 13.0132 7.7334 13.0132 6.94336C13.0132 6.1543 12.6587 5.37695 11.9814 4.70605L10.1289 2.85352C9.91113 2.63574 9.70605 2.4248 9.49463 2.20703C9.08447 1.78418 8.65576 1.34863 8.23291 0.957031C7.59277 0.329102 6.84033 0 6.04443 0C5.25537 0 4.49658 0.329102 3.83154 0.963867L1.50684 3.28809C0.661133 4.13379 0.182617 5.15918 0.0830078 6.34668C-0.034668 7.83301 0.23877 9.41113 0.947266 11.3203C2.03516 14.2725 3.67627 17.0137 6.11328 19.9424ZM1.6001 6.47754C1.6748 5.65039 1.9917 4.96094 2.58838 4.36426L4.90088 2.05176C5.26123 1.70312 5.65918 1.52344 6.04443 1.52344C6.42383 1.52344 6.80908 1.70312 7.16357 2.06348C7.58008 2.44922 7.97168 2.85352 8.39453 3.28223C8.60596 3.5 8.82324 3.71777 9.04102 3.94141L10.8936 5.79395C11.2788 6.17871 11.4775 6.57031 11.4775 6.95605C11.4775 7.3418 11.2788 7.7334 10.8936 8.11816C10.7007 8.31152 10.5078 8.50977 10.3154 8.70312C9.7373 9.28711 9.19629 9.84082 8.59961 10.3691C8.58691 10.3809 8.58105 10.3877 8.56836 10.4004C8.05273 10.916 8.1333 11.4072 8.25781 11.7803C8.26367 11.7988 8.27002 11.8105 8.27637 11.8301C8.75488 12.9795 9.41992 14.0742 10.4585 15.3789C12.3232 17.6797 14.2876 19.4629 16.4507 20.8369C16.7183 21.0107 17.0039 21.1475 17.2715 21.2852C17.52 21.4092 17.75 21.5273 17.9551 21.6572C17.98 21.6699 17.9985 21.6826 18.0234 21.6953C18.2285 21.8008 18.4277 21.8506 18.6265 21.8506C19.124 21.8506 19.4473 21.5332 19.5527 21.4277L21.8774 19.1025C22.2383 18.7422 22.6299 18.5498 23.0151 18.5498C23.4878 18.5498 23.873 18.8418 24.1157 19.1025L27.8638 22.8447C28.6099 23.5908 28.6035 24.3994 27.8452 25.1885C27.5845 25.4688 27.3105 25.7354 27.0186 26.0156C26.5835 26.4385 26.1294 26.873 25.7192 27.3643C25.0044 28.1348 24.1528 28.4961 23.0527 28.4961C22.9468 28.4961 22.835 28.4893 22.7295 28.4834C20.6904 28.3525 18.7944 27.5566 17.3706 26.8799C13.5044 25.0078 10.1104 22.3535 7.29395 18.9844C4.97559 16.1934 3.41504 13.5947 2.3833 10.8105C1.74316 9.10059 1.50049 7.72656 1.6001 6.47754Z" fill="#111111" fill-opacity="1.000000" fill-rule="nonzero"/>
	</g>
</svg>