<svg xmlns="http://www.w3.org/2000/svg" width="34" height="34" viewBox="0 0 34 34" fill="none">
  <path d="M18.9124 7.45233L20.7116 11.1215C20.8642 11.4304 21.0897 11.6976 21.3686 11.8999C21.6475 12.1023 21.9714 12.2338 22.3124 12.2832L26.3499 12.864C26.7426 12.921 27.1114 13.0868 27.4147 13.3427C27.718 13.5985 27.9436 13.9341 28.066 14.3116C28.1883 14.689 28.2026 15.0932 28.1071 15.4783C28.0116 15.8634 27.8102 16.2141 27.5257 16.4907L24.6074 19.324C24.3529 19.5686 24.1637 19.8731 24.0573 20.2097C23.9509 20.5463 23.9306 20.9042 23.9982 21.2507L24.6782 25.274C24.7437 25.6634 24.6993 26.0634 24.55 26.429C24.4008 26.7947 24.1526 27.1115 23.8334 27.3439C23.5142 27.5764 23.1364 27.7153 22.7427 27.745C22.3489 27.7747 21.9546 27.6942 21.6041 27.5123L17.9916 25.5857C17.6855 25.4256 17.3453 25.3419 16.9999 25.3419C16.6545 25.3419 16.3143 25.4256 16.0082 25.5857L12.3957 27.484C12.0452 27.6658 11.6509 27.7464 11.2571 27.7167C10.8633 27.6869 10.4856 27.548 10.1664 27.3156C9.84715 27.0831 9.59899 26.7663 9.44976 26.4007C9.30053 26.0351 9.25614 25.6351 9.32156 25.2457L10.0016 21.2507C10.0618 20.9107 10.0378 20.5612 9.93163 20.2327C9.82543 19.9042 9.64027 19.6068 9.3924 19.3665L6.47406 16.5332C6.17677 16.2585 5.96409 15.9047 5.86104 15.5133C5.758 15.1219 5.76887 14.7092 5.89239 14.3238C6.0159 13.9383 6.24692 13.5962 6.55827 13.3376C6.86962 13.079 7.24834 12.9147 7.6499 12.864L11.6874 12.2832C12.0284 12.2338 12.3523 12.1023 12.6312 11.8999C12.9101 11.6976 13.1356 11.4304 13.2882 11.1215L15.0874 7.45233C15.2652 7.09744 15.5383 6.79903 15.8761 6.59048C16.2138 6.38194 16.6029 6.27148 16.9999 6.27148C17.3968 6.27148 17.786 6.38194 18.1237 6.59048C18.4615 6.79903 18.7346 7.09744 18.9124 7.45233Z" stroke="white" stroke-width="2" stroke-miterlimit="10"/>
</svg>